<svg xmlns="http://www.w3.org/2000/svg" viewBox="0 0 500 500"><g id="freepik--Shadow--inject-2"><ellipse id="freepik--path--inject-2" cx="250" cy="416.24" rx="193.89" ry="11.32" style="fill:#f5f5f5"></ellipse></g><g id="freepik--pill-box--inject-2"><rect x="180" y="193.89" width="185.67" height="222.35" rx="31.34" style="fill:#005AAC"></rect><rect x="214.44" y="179.67" width="116.78" height="35" style="fill:#005AAC"></rect><polygon points="331.22 185 214.44 188.45 214.44 179.67 331.22 179.67 331.22 185" style="fill:#263238;opacity:0.30000000000000004"></polygon><rect x="207" y="144.84" width="131.67" height="36.94" rx="2.81" style="fill:#005AAC"></rect><rect x="207" y="144.84" width="131.67" height="36.94" rx="2.81" style="fill:#fff;opacity:0.6000000000000001"></rect><path d="M247.5,244.56H365.67a0,0,0,0,1,0,0V366.11a0,0,0,0,1,0,0H247.5a16.17,16.17,0,0,1-16.17-16.17V260.72A16.17,16.17,0,0,1,247.5,244.56Z" style="fill:#fff;opacity:0.9"></path><path d="M196.17,244.56h13.5a0,0,0,0,1,0,0V366.11a0,0,0,0,1,0,0h-13.5A16.17,16.17,0,0,1,180,349.94V260.72A16.17,16.17,0,0,1,196.17,244.56Z" transform="translate(389.67 610.67) rotate(180)" style="fill:#fff;opacity:0.9"></path></g><g id="freepik--character-2--inject-2"><path d="M352,410.78a31.79,31.79,0,0,0,5-4.22H301.23L298.53,356h67.14v-4.22H298.3l-2.71-50.58h70.08V297h-70.3l-2.71-50.58h73v-4.22H292.44l-2.71-50.58h41.49v-4.22H289.5l-2.27-42.52h-6.67l14.52,271.39h6.67l-.29-5.45Z" style="fill:#263238;opacity:0.1"></path><path d="M365.24,119.46l1.72,10H289l-1.72-10h-6.67L331.7,417.68h6.67l-1.72-10h78l1.72,10H423L371.91,119.46Zm2.44,14.22,8.67,50.58h-78l-8.67-50.58ZM317.14,293.86l-8.67-50.58h78l8.67,50.58Zm78.72,4.22,8.67,50.58h-78l-8.67-50.58Zm-88.12-59-8.67-50.58h78l8.67,50.58Zm28.19,164.4-8.67-50.58h78l8.67,50.58Z" style="fill:#263238"></path><path d="M361.54,121.1a7.93,7.93,0,0,1,3.46-3.93,7.35,7.35,0,0,0-.32-5l18-7.56c-.94,6.25-1.67,11.19.87,14-3.44,2.55-9.74,7.13-17,7.58S360.59,123.77,361.54,121.1Z" style="fill:#b55b52"></path><path d="M360.66,96l.11,6.08s-2.31.57-3.7-.45A12.67,12.67,0,0,1,360.66,96Z" style="fill:#a02724"></path><path d="M360.76,95.16c-.07.72-.51,1.26-1,1.21s-.79-.67-.73-1.39.51-1.27,1-1.22S360.83,94.44,360.76,95.16Z" style="fill:#263238"></path><path d="M360,89.49a.41.41,0,0,0,.25.31,3.3,3.3,0,0,1,2.07,2.25.42.42,0,0,0,.5.33.42.42,0,0,0,.33-.5A4.15,4.15,0,0,0,360.55,89a.43.43,0,0,0-.57.49Z" style="fill:#263238"></path><path d="M385.39,94.92c-1.38,8.79-2.51,14.73-8,18-10.9,6.46-16.57,1.06-17.85-8-1.15-8.15,1.3-21.16,10.3-23.78A12.27,12.27,0,0,1,385.39,94.92Z" style="fill:#b55b52"></path><path d="M366.65,98.91c-4-.88-5.21-5.25-2.74-6.9-1.64-3.56-4-4.19-3.94-8.4s4.43-9.25,13.5-8.45c-1.25.7-2.54,1.33-2.54,1.33s7-1.17,12.68,2.14,8.87,1.28,8.87,1.28a3.25,3.25,0,0,1-1.91,2.75c1.45.75,4.91,7.66-.42,13.58s-7.15,9.85-5.29,12.22c-2.67,2.82-9,2.65-13.14.39S366.65,98.91,366.65,98.91Z" style="fill:#263238"></path><path d="M371.55,97.9a7.3,7.3,0,0,1-3.64,4.27c-2.3,1.16-4-.79-3.76-3.22.2-2.18,1.63-5.42,4.15-5.56A3.32,3.32,0,0,1,371.55,97.9Z" style="fill:#b55b52"></path><polygon points="358.88 327.58 372.44 327.71 371.93 343.7 360.6 343.61 358.88 327.58" style="fill:#b55b52"></polygon><polygon points="358.89 327.58 372.44 327.71 372.15 336.67 359.85 336.56 358.89 327.58" style="opacity:0.2"></polygon><path d="M373.27,263.88c4.73-21,12.56-43.26,4.31-62.14L339.92,205s3.73,44.78,4.74,63.71c1,19.67,13.81,65.07,13.81,65.07l15.51,0S376.39,285.66,373.27,263.88Z" style="fill:#005AAC"></path><path d="M374.09,348.65h-3.57l-.87-1.2-1.48,1.21h-20a7.74,7.74,0,0,1,.54-4.07s6.93-1.13,9.62-3a2,2,0,0,1,1.58-.32c2.42.46,8.82,1.5,12.28.15a.61.61,0,0,1,.77.53A43.77,43.77,0,0,0,374.09,348.65Z" style="fill:#263238"></path><polygon points="416.93 310.48 429.49 305.36 436.21 319.89 425.72 324.18 416.93 310.48" style="fill:#b55b52"></polygon><polygon points="416.93 310.48 429.5 305.37 433.26 313.5 421.86 318.15 416.93 310.48" style="opacity:0.2"></polygon><path d="M415.63,260.05c-.76-20.54-2-51.26-9.74-60l-42.15,2.87s15.75,43.69,21.82,62.16c6.31,19.19,33.84,51.16,33.84,51.16l13.54-5.62S423.23,282.88,415.63,260.05Z" style="fill:#005AAC"></path><path d="M355.44,119.47a170,170,0,0,1,37.57-2.8,12.71,12.71,0,0,1,11.91,14.12c-3.18,29.91,2.9,65.07,2.83,70.93,0,0-54.93,22.61-69.62,5.48-7.1-35.64,3.11-66.69,7.88-79.67A12.65,12.65,0,0,1,355.44,119.47Z" style="fill:#005AAC"></path><path d="M373.27,263.88c.4,2.74.7,5.9.93,9.33a166,166,0,0,1-28.87,2.36c-.33-2.5-.56-4.8-.67-6.83-.15-2.82-.36-6.21-.61-9.94a258.81,258.81,0,0,0,30.48-.28Q373.87,261.21,373.27,263.88Z" style="fill:#263238;opacity:0.1"></path><path d="M416,261.13c-6.95,3.32-16.94,6.71-28.25,9.37a52.24,52.24,0,0,1-2.19-5.46c-.69-2.1-1.51-4.54-2.41-7.19a306.84,306.84,0,0,0,32.21-4.64c.1,2.37.19,4.66.27,6.84Z" style="fill:#263238;opacity:0.1"></path><path d="M418.53,253.66c-8,8-41.23,17.9-67.21,13.88a59.71,59.71,0,0,1-3.63-10.38,43.43,43.43,0,0,0-.8,9.53,51.69,51.69,0,0,1-7.8-2.4c-1.77-13.58-6.35-66.59-4.28-94.94s11.44-46.21,13.36-47.54,14.73-5,29.45-6.07c13.45-1,25.44,2.29,27.77,6.29,3.83,6,.88,50.28,2.36,64S417.35,232.11,418.53,253.66Z" style="fill:#005AAC"></path><path d="M418.53,253.66c-8,8-41.23,17.9-67.21,13.88a59.71,59.71,0,0,1-3.63-10.38,43.43,43.43,0,0,0-.8,9.53,51.69,51.69,0,0,1-7.8-2.4c-1.77-13.58-6.35-66.59-4.28-94.94s11.44-46.21,13.36-47.54,14.73-5,29.45-6.07c13.45-1,25.44,2.29,27.77,6.29,3.83,6,.88,50.28,2.36,64S417.35,232.11,418.53,253.66Z" style="fill:#fff;opacity:0.30000000000000004"></path><path d="M440.53,320.67l-2.23,1.93-1.39-.39-.38,1.93-13.45,11.63A7.89,7.89,0,0,1,421,332.2s3.7-3.85,3.52-7.19a.65.65,0,0,1,.32-.63c1.58-.88,7.78-4.48,9.8-8.06a.63.63,0,0,1,1-.13A43.38,43.38,0,0,0,440.53,320.67Z" style="fill:#263238"></path><path d="M298.81,160.3l.24,5.71c-1.88,5.69-8.78,2-8.78,2l-4-.44a3,3,0,0,1-2.51-3l-.2-4a3.15,3.15,0,0,1,2.7-3.48l3.53-.2a6.27,6.27,0,0,1,3,.57Z" style="fill:#b55b52"></path><path d="M300,161.16c-1.68-4.61-6.07-5.07-9.34-6.5-.56-.24-1.69.91-1.11,1.85a5,5,0,0,0,3,2.55c-.09,1.53,1.19,5.78,5.51,6.05A6.19,6.19,0,0,0,300,161.16Z" style="fill:#b55b52"></path><path d="M338,147.73a141.07,141.07,0,0,0-3.23,21.62q-.1,1.41-.18,2.91c7.06-6.44,11.72-16.39,11.73-22.6C346.36,146.64,342.29,145.76,338,147.73Z" style="fill:#005AAC;opacity:0.5"></path><path d="M379.77,186s16.61-1.36,21.45-4.22C395.38,186.53,387.38,187.16,379.77,186Z" style="fill:#005AAC;opacity:0.5"></path><path d="M381.65,187.94s12.23.76,16.05-.81C393,190,387.06,189.58,381.65,187.94Z" style="fill:#005AAC;opacity:0.5"></path><path d="M364.05,137.24c-2.27,2.44-4.57,4.76-6.87,7.13s-4.67,4.65-7,7c-4.69,4.64-9.5,9.17-14.5,13.68l-2.06,1.85-1.82.51a62.44,62.44,0,0,1-9.5,1.7c-3,.35-5.85.55-8.71.7s-5.71.23-8.55.24-5.64,0-8.55-.17l-1-14.34,8-1.62c2.65-.53,5.3-1.07,7.91-1.63s5.19-1.15,7.67-1.76a54.34,54.34,0,0,0,6.64-2l-3.89,2.36,13-14.32,6.53-7.23c2.2-2.39,4.39-4.82,6.59-7.17Z" style="fill:#005AAC"></path><g style="opacity:0.30000000000000004"><path d="M364.05,137.24c-2.27,2.44-4.57,4.76-6.87,7.13s-4.67,4.65-7,7c-4.69,4.64-9.5,9.17-14.5,13.68l-2.06,1.85-1.82.51a62.44,62.44,0,0,1-9.5,1.7c-3,.35-5.85.55-8.71.7s-5.71.23-8.55.24-5.64,0-8.55-.17l-1-14.34,8-1.62c2.65-.53,5.3-1.07,7.91-1.63s5.19-1.15,7.67-1.76a54.34,54.34,0,0,0,6.64-2l-3.89,2.36,13-14.32,6.53-7.23c2.2-2.39,4.39-4.82,6.59-7.17Z" style="fill:#fff"></path></g></g></svg>