<svg xmlns="http://www.w3.org/2000/svg" xmlns:xlink="http://www.w3.org/1999/xlink" viewBox="0 0 500 500"><defs><clipPath id="freepik--clip-path--inject-53"><path d="M202.66,304.85h17.59a4,4,0,0,0,4-4h0a4,4,0,0,0-4-4H202.66a4,4,0,0,0-4,4h0A4,4,0,0,0,202.66,304.85Z" style="fill:none"></path></clipPath></defs><g id="freepik--Shadow--inject-53"><ellipse id="freepik--path--inject-53" cx="250" cy="415.69" rx="193.89" ry="11.32" style="fill:#f5f5f5"></ellipse></g><g id="freepik--Screen--inject-53"><rect x="55.94" y="62.66" width="283.98" height="195.32" style="fill:#34B962"></rect><g style="opacity:0.30000000000000004"><rect x="55.94" y="62.66" width="283.98" height="195.32" style="fill:#fff"></rect></g><rect x="55.94" y="62.66" width="283.9" height="15.44" style="fill:#263238"></rect><path d="M201.81,94.55l13-2.3,39.66,147.07-13,2.31a12.3,12.3,0,0,1-13.77-8.77L193.82,107.2A10,10,0,0,1,201.81,94.55Z" style="fill:#34B962"></path><g style="opacity:0.5"><path d="M201.81,94.55l13-2.3,39.66,147.07-13,2.31a12.3,12.3,0,0,1-13.77-8.77L193.82,107.2A10,10,0,0,1,201.81,94.55Z"></path></g><path d="M244.13,241.16l53.4-9.51a10,10,0,0,0,8-12.64L271.64,93.35a12.3,12.3,0,0,0-13.77-8.77l-53.4,9.5a10,10,0,0,0-8,12.65l33.88,125.65A12.31,12.31,0,0,0,244.13,241.16Z" style="fill:#34B962"></path><path d="M205.13,96.54,219,94.07a2,2,0,0,1,2.21,1.23l.17.42a5,5,0,0,0,5.4,3L240,96.39a4,4,0,0,0,3.35-4.58l-.06-.43a1.67,1.67,0,0,1,1.37-1.88L258.54,87a9.48,9.48,0,0,1,10.6,6.76L303,219.45a7.67,7.67,0,0,1-6.16,9.74l-53.4,9.51a9.48,9.48,0,0,1-10.61-6.76L199,106.28A7.67,7.67,0,0,1,205.13,96.54Z" style="fill:#34B962"></path><path d="M205.13,96.54,219,94.07a2,2,0,0,1,2.21,1.23l.17.42a5,5,0,0,0,5.4,3L240,96.39a4,4,0,0,0,3.35-4.58l-.06-.43a1.67,1.67,0,0,1,1.37-1.88L258.54,87a9.48,9.48,0,0,1,10.6,6.76L303,219.45a7.67,7.67,0,0,1-6.16,9.74l-53.4,9.51a9.48,9.48,0,0,1-10.61-6.76L199,106.28A7.67,7.67,0,0,1,205.13,96.54Z" style="fill:#fff;opacity:0.7000000000000001"></path><path d="M235.44,92.6a1.2,1.2,0,0,0,1.34.86,1,1,0,0,0,.78-1.23,1.21,1.21,0,0,0-1.34-.86A1,1,0,0,0,235.44,92.6Z" style="fill:#263238"></path><path d="M227.64,92.9l3.63-.65a1.21,1.21,0,0,1,1.35.86,1,1,0,0,1-.78,1.23L228.2,95a1.2,1.2,0,0,1-1.34-.86A1,1,0,0,1,227.64,92.9Z" style="fill:#263238"></path><polygon points="262.66 92.33 261.53 92.53 261.24 91.42 262.36 91.22 262.66 92.33" style="fill:#34B962"></polygon><polygon points="260.11 91.62 260.41 92.73 259.29 92.93 258.99 91.82 258.69 90.72 259.81 90.52 260.11 91.62" style="fill:#34B962"></polygon><polygon points="257.27 89.81 257.57 90.92 257.87 92.02 258.16 93.13 257.04 93.33 256.74 92.22 256.44 91.12 256.15 90.01 257.27 89.81" style="fill:#34B962"></polygon><path d="M204.05,99.36l.88,3.24,4.94-.88-.22-.81.55-.09-.44-1.63-.55.1-.22-.81Zm3,.32,1.64-.29.44,1.62-1.65.29Z" style="fill:#34B962"></path><path d="M213,128.54l11-2a3.37,3.37,0,0,0,2.7-4.27l-2.92-10.81a4.15,4.15,0,0,0-4.65-3l-11,1.95a3.37,3.37,0,0,0-2.7,4.27l2.92,10.81A4.15,4.15,0,0,0,213,128.54Z" style="fill:#34B962"></path><path d="M235.21,124.58l11-2a3.36,3.36,0,0,0,2.7-4.27L246,107.54a4.15,4.15,0,0,0-4.65-3l-11,2a3.37,3.37,0,0,0-2.7,4.27l2.91,10.82A4.16,4.16,0,0,0,235.21,124.58Z" style="fill:#34B962"></path><path d="M257.46,120.62l11-2a3.36,3.36,0,0,0,2.7-4.27l-2.92-10.81a4.16,4.16,0,0,0-4.65-3l-11,1.95a3.38,3.38,0,0,0-2.7,4.27l2.92,10.82A4.16,4.16,0,0,0,257.46,120.62Z" style="fill:#34B962"></path><path d="M221,158.31l11-2a3.36,3.36,0,0,0,2.7-4.27l-2.91-10.81a4.15,4.15,0,0,0-4.65-3l-11,1.95a3.37,3.37,0,0,0-2.69,4.27l2.91,10.82A4.16,4.16,0,0,0,221,158.31Z" style="fill:#34B962"></path><path d="M243.24,154.35l11-2a3.36,3.36,0,0,0,2.7-4.27L254,137.31a4.15,4.15,0,0,0-4.65-3l-11,2a3.37,3.37,0,0,0-2.7,4.27l2.92,10.82A4.16,4.16,0,0,0,243.24,154.35Z" style="fill:#34B962"></path><path d="M265.48,150.39l11-2a3.36,3.36,0,0,0,2.69-4.27l-2.91-10.81a4.16,4.16,0,0,0-4.65-3l-11,2a3.36,3.36,0,0,0-2.7,4.26l2.92,10.82A4.14,4.14,0,0,0,265.48,150.39Z" style="fill:#34B962"></path><path d="M229,188.08l11-2a3.36,3.36,0,0,0,2.7-4.27L239.78,171a4.15,4.15,0,0,0-4.65-3l-11,1.95a3.37,3.37,0,0,0-2.7,4.27l2.92,10.82A4.16,4.16,0,0,0,229,188.08Z" style="fill:#34B962"></path><path d="M251.26,184.12l11-2a3.36,3.36,0,0,0,2.69-4.27L262,167.08a4.16,4.16,0,0,0-4.65-3l-11,1.95a3.37,3.37,0,0,0-2.7,4.27l2.91,10.82A4.16,4.16,0,0,0,251.26,184.12Z" style="fill:#34B962"></path><path d="M273.51,180.16l11-2a3.36,3.36,0,0,0,2.7-4.27l-2.92-10.81a4.15,4.15,0,0,0-4.64-3l-11,2a3.36,3.36,0,0,0-2.69,4.27l2.91,10.81A4.16,4.16,0,0,0,273.51,180.16Z" style="fill:#34B962"></path><path d="M237,217.85l11-2a3.36,3.36,0,0,0,2.7-4.27l-2.91-10.81a4.16,4.16,0,0,0-4.65-3l-11,2a3.36,3.36,0,0,0-2.7,4.26l2.91,10.82A4.16,4.16,0,0,0,237,217.85Z" style="fill:#34B962"></path><path d="M259.29,213.89l11-2a3.36,3.36,0,0,0,2.7-4.27l-2.92-10.81a4.16,4.16,0,0,0-4.65-3l-11,2a3.37,3.37,0,0,0-2.7,4.27l2.92,10.81A4.16,4.16,0,0,0,259.29,213.89Z" style="fill:#34B962"></path><path d="M281.53,209.93l11-2a3.38,3.38,0,0,0,2.7-4.27l-2.92-10.82a4.16,4.16,0,0,0-4.65-3l-11,2a3.36,3.36,0,0,0-2.7,4.27L276.89,207A4.15,4.15,0,0,0,281.53,209.93Z" style="fill:#34B962"></path><g style="opacity:0.4"><path d="M240,96.39l61.26,130.52a7.82,7.82,0,0,1-4.34,2.28l-2.88.52L232.07,97.79Z" style="fill:#fff"></path><path d="M205.13,96.54,219,94.07a2,2,0,0,1,2.21,1.23l.17.42a5,5,0,0,0,5.23,3l61.92,131.92-28.42,5.06L198.74,105A7.63,7.63,0,0,1,205.13,96.54Z" style="fill:#fff"></path></g><path d="M71.22,156.08,70.65,159h5l-.42,2h-5l-.79,4H66.94l2.17-10.86h8.21l-.42,2Z" style="fill:#fff"></path><path d="M77.6,161.31a6.07,6.07,0,0,1,.13-1.17l1.21-6.08h2.53l-1.21,6a4.43,4.43,0,0,0-.1.91c0,1.32.75,2,2.1,2,1.52,0,2.4-.84,2.82-2.87l1.21-6h2.47l-1.23,6.19c-.65,3.21-2.49,4.86-5.55,4.86C79.25,165.11,77.6,163.65,77.6,161.31Z" style="fill:#fff"></path><path d="M101.22,154.06l-2.17,10.86H97l-4-6.8-1.37,6.8H89.09l2.17-10.86h2.08l4,6.81,1.35-6.81Z" style="fill:#fff"></path><path d="M102,160.39a6.39,6.39,0,0,1,6.75-6.52A4.84,4.84,0,0,1,113,155.8l-1.82,1.49a2.93,2.93,0,0,0-2.62-1.28,4,4,0,0,0-4,4.23c0,1.64,1.08,2.73,3,2.73a3.76,3.76,0,0,0,2.88-1.26l1.49,1.52a5.73,5.73,0,0,1-4.59,1.88C104,165.11,102,163.18,102,160.39Z" style="fill:#fff"></path><path d="M116.9,156.11h-3.47l.42-2.05h9.46l-.42,2.05h-3.46l-1.77,8.81h-2.51Z" style="fill:#fff"></path><path d="M124.66,154.06h2.53L125,164.92h-2.53Z" style="fill:#fff"></path><path d="M127.92,160.39a6.38,6.38,0,0,1,6.72-6.52c3.31,0,5.29,1.93,5.29,4.72a6.38,6.38,0,0,1-6.71,6.52C129.91,165.11,127.92,163.18,127.92,160.39Zm9.47-1.66a2.64,2.64,0,0,0-3-2.72,4,4,0,0,0-4,4.24,2.63,2.63,0,0,0,3,2.72A4,4,0,0,0,137.39,158.73Z" style="fill:#fff"></path><path d="M152.82,154.06l-2.18,10.86h-2.06l-4.05-6.8-1.36,6.8h-2.49l2.17-10.86h2.08l4,6.81,1.35-6.81Z" style="fill:#fff"></path><path d="M152.65,163.9l1-1.94a6.17,6.17,0,0,0,3.59,1.13c1.38,0,2.25-.48,2.25-1.27,0-1.74-5.39-.81-5.39-4.27,0-2.23,2-3.68,5-3.68a7.19,7.19,0,0,1,3.76.93l-.95,1.93a5.28,5.28,0,0,0-3-.84c-1.46,0-2.31.56-2.31,1.33,0,1.79,5.38.86,5.38,4.19,0,2.25-2,3.7-5,3.7A7.82,7.82,0,0,1,152.65,163.9Z" style="fill:#fff"></path><path d="M91.17,121.39v26.53h-5L72.9,131.81v16.11H66.84V121.39h5.08l13.19,16.1v-16.1Z" style="fill:#fff"></path><path d="M118,143v4.93H97.46V121.39h20.05v4.92h-14v5.76h12.32v4.78H103.56V143Z" style="fill:#fff"></path><path d="M162.61,121.39l-8.68,26.53h-6.59l-5.84-18-6,18h-6.55l-8.72-26.53h6.37l6,18.64,6.25-18.64h5.68l6.07,18.79,6.18-18.79Z" style="fill:#fff"></path><path d="M72.37,184.58A2.55,2.55,0,1,1,69.83,182,2.54,2.54,0,0,1,72.37,184.58Z" style="fill:#fff"></path><rect x="76.95" y="185.09" width="62.15" height="2.02" style="fill:#fff"></rect><circle cx="69.83" cy="195.03" r="2.54" style="fill:#fff"></circle><rect x="76.95" y="195.55" width="62.15" height="2.02" style="fill:#fff"></rect><path d="M72.37,205.65a2.55,2.55,0,1,1-2.54-2.54A2.54,2.54,0,0,1,72.37,205.65Z" style="fill:#fff"></path><rect x="76.95" y="206.17" width="61.59" height="2.02" style="fill:#fff"></rect><rect x="286.44" y="215.23" width="0.75" height="31.82" transform="translate(-1.47 460.45) rotate(-77.37)" style="fill:#263238"></rect><path d="M326.45,241.12H307a5.19,5.19,0,1,1,0-10.37h19.49a5.19,5.19,0,0,1,0,10.37ZM307,231.5a4.44,4.44,0,1,0,0,8.87h19.49a4.44,4.44,0,0,0,0-8.87Z" style="fill:#263238"></path><path d="M274.05,227.66a2.76,2.76,0,1,1-2.76-2.76A2.76,2.76,0,0,1,274.05,227.66Z" style="fill:#263238"></path><rect x="225.52" y="186.91" width="0.75" height="28.17" transform="translate(-76.45 204.64) rotate(-42.35)" style="fill:#263238"></rect><path d="M211.6,197H192.11a5.19,5.19,0,0,1,0-10.38H211.6a5.19,5.19,0,0,1,0,10.38Zm-19.49-9.63a4.44,4.44,0,0,0,0,8.88H211.6a4.44,4.44,0,0,0,0-8.88Z" style="fill:#263238"></path><path d="M232.63,211.4a2.76,2.76,0,1,0,2.76-2.76A2.76,2.76,0,0,0,232.63,211.4Z" style="fill:#263238"></path><rect x="269.61" y="129.25" width="28.17" height="0.75" transform="translate(-3.13 252.18) rotate(-47.69)" style="fill:#263238"></rect><path d="M317.49,125.62H298a5.19,5.19,0,0,1,0-10.37h19.49a5.19,5.19,0,1,1,0,10.37ZM298,116a4.44,4.44,0,0,0,0,8.87h19.49a4.44,4.44,0,1,0,0-8.87Z" style="fill:#263238"></path><path d="M277,140a2.76,2.76,0,1,1-2.76-2.76A2.76,2.76,0,0,1,277,140Z" style="fill:#263238"></path><rect x="205.1" y="96.8" width="0.75" height="58.6" transform="translate(-33.83 155.3) rotate(-38.5)" style="fill:#263238"></rect><path d="M182.42,108.35H162.93a5.19,5.19,0,0,1,0-10.37h19.49a5.19,5.19,0,1,1,0,10.37Zm-19.49-9.62a4.44,4.44,0,0,0,0,8.87h19.49a4.44,4.44,0,1,0,0-8.87Z" style="fill:#263238"></path><path d="M221,149a2.76,2.76,0,1,0,2.76-2.76A2.75,2.75,0,0,0,221,149Z" style="fill:#263238"></path></g><g id="freepik--Character--inject-53"><path d="M345,207.73l-9.33-.2s-6.41-2.21-7.16-1.76l-3.17.24a3.17,3.17,0,0,0-1.28,3.93l1,2.23a2.65,2.65,0,0,0,2.92,1.61l8.08-1.08,9.93-.12Z" style="fill:#eec1bb"></path><path d="M391.2,185.72s-4-3.6-11.47,1.57c-6.91,4.81-16.5,14.6-20,15l-20.08,4v7.85s14.05-.87,20.12-1.3c7.08-.52,14.31-5.94,17.67-9.84C381.51,198.34,390,190.26,391.2,185.72Z" style="fill:#34B962"></path><path d="M391.2,185.72s-4-3.6-11.47,1.57c-6.91,4.81-16.5,14.6-20,15l-20.08,4v7.85s14.05-.87,20.12-1.3c7.08-.52,14.31-5.94,17.67-9.84C381.51,198.34,390,190.26,391.2,185.72Z" style="fill:#fff;opacity:0.7000000000000001"></path><path d="M362.84,212.34c6-1.53,11.77-6,14.65-9.33a37.58,37.58,0,0,0,7.67-14.46S369,205.41,362.84,212.34Z" style="opacity:0.1"></path><polygon points="433.01 399.34 438.6 397.42 438.03 387.77 437.07 378.95 428.3 379.92 430.79 390.2 433.01 399.34" style="fill:#ffc3bd"></polygon><path d="M427.76,412.67a9.75,9.75,0,0,1,2.59-2.41h0s2.43-4.07,1.5-14.22l4-2.21a3.79,3.79,0,0,1,4.28.53,2.47,2.47,0,0,1,.42.49,27.2,27.2,0,0,1,1.24,3,91.48,91.48,0,0,1,2.81,10.7l-.77.22-2-6.65c-.66-2.27-1.77.88-1.64,3.46s-.27,5.48-5.25,6.88C429.13,414.08,426.64,414.47,427.76,412.67Z" style="fill:#263238"></path><path d="M431.71,392.35s.24,4.69.05,10a21.12,21.12,0,0,1-1.41,7.9s3.92-.29,4.9-3.23,1-12.11,4.9-12.64a9.51,9.51,0,0,0-1.55-1.49C437.69,392.19,431.71,392.35,431.71,392.35Z" style="fill:#ffc3bd"></path><polygon points="375.79 400.63 381.69 400.38 383.9 390.97 385.5 382.25 376.82 380.67 376.27 391.23 375.79 400.63" style="fill:#ffc3bd"></polygon><path d="M367,411.9a9.9,9.9,0,0,1,3.17-1.57h0s3.5-3.2,5.5-13.2l4.46-1a3.78,3.78,0,0,1,3.95,1.72,2.12,2.12,0,0,1,.25.6,25.09,25.09,0,0,1,.34,3.23,90.78,90.78,0,0,1-.37,11.06h-.8l0-6.95c0-2.36-1.94.34-2.55,2.84s-1.82,5.18-7,5.1C367.86,413.65,365.36,413.31,367,411.9Z" style="fill:#263238"></path><path d="M376.54,393.56s-1.11,4.56-2.82,9.6a21,21,0,0,1-3.6,7.17s3.84.84,5.62-1.7,4.4-11.32,8.31-10.71a9.58,9.58,0,0,0-1.06-1.87C382.32,395.11,376.54,393.56,376.54,393.56Z" style="fill:#ffc3bd"></path><path d="M375.06,324.81l1.32,63.55,7.82.81s6-22.69,7.34-45.48c.31-5.26-.94-11.38-.36-15.53.51-3.64,2-5.92,4-14.15,1.29-5.24,2.71-11.7,3.89-17.94v0c1.07-5.64,1.92-11.11,2.27-15.36a29.36,29.36,0,0,0,2.4-3.93,36,36,0,0,0,3.74-22.8l-26-11.53Z" style="fill:#263238"></path><path d="M382.5,240.83s-12.32,63.83-12.38,95.92c0,22.2-.1,33.61-.12,38.22a6.07,6.07,0,0,0,1.78,4.33l4.86,4.85h8.77l5.95-3.4a6,6,0,0,0,3.05-5.41c-.24-9.65-.76-35.78.54-43.43,1.61-9.43,7.61-62.23,7.55-67.91S405.33,235.82,382.5,240.83Z" style="fill:#263238"></path><path d="M392.92,244s13.28,69.47,17.42,96c3.43,21.93,9.17,32.33,10.41,36.77a6.06,6.06,0,0,0,2.9,3.67l6,3.32,8.44-2.41,4.78-4.9a6.05,6.05,0,0,0,1.44-6.05c-2.89-9.2-10.59-34.18-11.44-41.89-1.05-9.52-7.67-47.7-8-60.48C424.71,262.37,413.49,232.92,392.92,244Z" style="fill:#263238"></path><path d="M396.64,267c.14.68,1,16.49,1.7,31.38.23-.69.47-1.47.71-2.33v0c1.07-5.64,1.92-11.11,2.27-15.36a29.36,29.36,0,0,0,2.4-3.93c.93-4.17,1.75-7.85,2.27-10Z" style="opacity:0.2"></path><path d="M392.72,250.58l17.95,76.31,19.41,60.52,7.71-1.45s-.73-23.46-5.94-45.69c-1.21-5.12-4.15-10.63-4.78-14.78-.55-3.63.18-6.22-.22-14.7-.5-10.24-.93-20.15-1.64-32.82,0,0,1.88-17.51-3.45-27.74Z" style="fill:#263238"></path><path d="M378.36,196.05a73.86,73.86,0,0,0-.07,15c.28,6.7,1.73,13.75,3.56,24.6,3.67,2.15,22.23,1.26,34.11-.28-.72-9.5.46-20.37,6.9-41.77,1.5-4.95-1.84-9.72-7.15-10.22-1.43-.14-2.94-.26-4.48-.32a119.67,119.67,0,0,0-16.29,0c-1.74.15-3.61.36-5.37.59C383.25,184.47,379.52,189.34,378.36,196.05Z" style="fill:#34B962"></path><path d="M378.36,196.05a73.86,73.86,0,0,0-.07,15c.28,6.7,1.73,13.75,3.56,24.6,3.67,2.15,22.23,1.26,34.11-.28-.72-9.5.46-20.37,6.9-41.77,1.5-4.95-1.84-9.72-7.15-10.22-1.43-.14-2.94-.26-4.48-.32a119.67,119.67,0,0,0-16.29,0c-1.74.15-3.61.36-5.37.59C383.25,184.47,379.52,189.34,378.36,196.05Z" style="fill:#fff;opacity:0.7000000000000001"></path><polygon points="381.85 235.65 415.96 235.38 423.22 253.97 396.64 264 380.49 261.37 381.85 235.65" style="fill:#263238"></polygon><path d="M381.77,238a156.41,156.41,0,0,0,35.47-.11.87.87,0,0,0,.65-1,.45.45,0,0,0,0-.11c-.29-.69-.59-1.38-.87-2.07a.74.74,0,0,0-.77-.48,158,158,0,0,1-34.64,0c-.43-.06-.54.22-.59.65a13.07,13.07,0,0,0,.31,3.12Z" style="fill:#34B962"></path><path d="M398.05,180.27a6,6,0,0,0-4.33,2,10.7,10.7,0,0,0-2.28,4.33,13.48,13.48,0,0,0,.41,9.31c1.33-1.18,2.38-2.16,3.7-3.34a28,28,0,0,1,4.93,3.87,39.22,39.22,0,0,0,8.3-10.87,4.57,4.57,0,0,0,.63-3.58c-.5-1.31-2-1.9-3.39-2.19C403.52,179.33,400.61,180.28,398.05,180.27Z" style="fill:#34B962"></path><path d="M398.05,180.27a6,6,0,0,0-4.33,2,10.7,10.7,0,0,0-2.28,4.33,13.48,13.48,0,0,0,.41,9.31c1.33-1.18,2.38-2.16,3.7-3.34a28,28,0,0,1,4.93,3.87,39.22,39.22,0,0,0,8.3-10.87,4.57,4.57,0,0,0,.63-3.58c-.5-1.31-2-1.9-3.39-2.19C403.52,179.33,400.61,180.28,398.05,180.27Z" style="fill:#fff;opacity:0.5"></path><path d="M395.53,144.35a11.79,11.79,0,0,0-6.39,1.63c-1.84,1.25-3.08,3.62-2.43,5.75a6.11,6.11,0,0,0-2.26,6.05c.51,2.11,1.75,4,2.71,5.91a12.55,12.55,0,0,1,.73,7.67c-.45,1.49-1.59,2.93-1.21,4.44a3.23,3.23,0,0,0,3,2.14,9.36,9.36,0,0,0,3.82-.89c1.36-.53,2.82,1.07,4.27,1.17a3.31,3.31,0,0,0,3.06-2.33,9.65,9.65,0,0,0,.26-4.08c-.42-5.27-.52-11.92-.94-17.18a27.19,27.19,0,0,0-.88-5.77A9.44,9.44,0,0,0,395.53,144.35Z" style="fill:#263238"></path><path d="M407,166.66c-.7,3.75-1.37,9.84-.2,13.92a5.9,5.9,0,0,1-2.55,6.52,66.67,66.67,0,0,1-6.79,3.79,1.63,1.63,0,0,1-2.12-.72v0a4.93,4.93,0,0,1,1.58-6.59c1.23-.78,1.58-5.07.79-8.07Z" style="fill:#ffc3bd"></path><path d="M403.2,170.26l-5.51,5.22a15.36,15.36,0,0,1,.5,2.69c2.09-.48,4.94-3,5.15-5.25A7.44,7.44,0,0,0,403.2,170.26Z" style="opacity:0.2"></path><path d="M410.38,156.45c-.83,8.06-1,11.48-5.26,15.66-6.34,6.26-15.95,4-17.53-4-1.42-7.22.19-19.18,8.16-22.47a10.37,10.37,0,0,1,14.63,10.79Z" style="fill:#ffc3bd"></path><path d="M392.21,159.73a19.63,19.63,0,0,1-3.21,3.94,2.71,2.71,0,0,0,2.25.76Z" style="fill:#ba4d3c"></path><path d="M394.2,167.4a6,6,0,0,1-1.12-.07.19.19,0,0,1-.16-.21h0a.23.23,0,0,1,.24-.17,5.64,5.64,0,0,0,4.66-1.49.19.19,0,0,1,.27,0h0a.18.18,0,0,1,0,.27h0A5.86,5.86,0,0,1,394.2,167.4Z" style="fill:#263238"></path><path d="M408.59,154.42c-2.23,5.54-4.48,11.39-2.27,16.94A22.2,22.2,0,0,0,414.59,155C411.92,155.23,411.07,155.45,408.59,154.42Z" style="fill:#263238"></path><path d="M408.59,154.42c-2.23,5.54-4.48,11.39-2.27,16.94A22.2,22.2,0,0,0,414.59,155C411.92,155.23,411.07,155.45,408.59,154.42Z" style="fill:#263238"></path><path d="M396,142.87a5.53,5.53,0,0,0-.19,6.63,7.42,7.42,0,0,0,6.2,2.95,7.43,7.43,0,0,0-.27,5.52,6.43,6.43,0,0,0,3.65,3.58,13.42,13.42,0,0,1,.2,10.79c-.65,1.48-1.59,3.24-.7,4.59s2.95,1.17,4.39.45,2.75-1.85,4.36-2c.9-.07,1.8.19,2.7,0s4.3-1.24.84-5.88c1.65-3.92,5.33-12.45,1.05-17.18a24.89,24.89,0,0,0-10.05-6.86,19.87,19.87,0,0,0-6.66-1.35C399.25,144.19,397.51,141.17,396,142.87Z" style="fill:#263238"></path><path d="M410.57,164.52a5.51,5.51,0,0,1-3.5,2.83c-1.87.42-2.6-1.73-1.89-3.83.66-1.89,2.37-4.38,4.16-3.84S411.54,162.7,410.57,164.52Z" style="fill:#ffc3bd"></path><path d="M400.25,189.4c9.75-4.9,7.75-9.71,6.11-11-.84,1.64-5.93,4.41-7.85,4.39-.95-.48-.11-3.41-.37-3.65a5.21,5.21,0,0,0-4.22,4.55,12.07,12.07,0,0,0,1.8,6.15c.41.79,1.56.9,2.45.78Z" style="fill:#34B962"></path><path d="M398.5,207.43a16,16,0,0,1-7.1,3.84A137.49,137.49,0,0,1,395.46,193a2.5,2.5,0,0,1,1.81-.17l.84.33Z" style="fill:#34B962"></path><path d="M400.74,205.5a16.82,16.82,0,0,1-5.18,5.35,130.39,130.39,0,0,1,.09-18.18,5.7,5.7,0,0,1,1.68,0l.89.14Z" style="fill:#34B962"></path><path d="M400.74,205.5a16.82,16.82,0,0,1-5.18,5.35,130.39,130.39,0,0,1,.09-18.18,5.7,5.7,0,0,1,1.68,0l.89.14Z" style="fill:#fff;opacity:0.1"></path><path d="M400.71,189.19a5.1,5.1,0,0,0-6-.74,9.62,9.62,0,0,0,.62,4.83c1.07-.06,2,.23,3.11.18C399,191.89,399.41,190.2,400.71,189.19Z" style="fill:#34B962"></path><path d="M400.71,189.19a5.1,5.1,0,0,0-6-.74,9.62,9.62,0,0,0,.62,4.83c1.07-.06,2,.23,3.11.18C399,191.89,399.41,190.2,400.71,189.19Z" style="fill:#fff;opacity:0.2"></path><path d="M335.36,216.51a1.13,1.13,0,0,1,.21,1.62h0a1.14,1.14,0,0,1-1.57.18l-48.92-44a.38.38,0,0,1-.08-.52h0a.38.38,0,0,1,.56-.1Z" style="fill:#263238"></path><g style="opacity:0.30000000000000004"><path d="M335.36,216.51a1.13,1.13,0,0,1,.21,1.62h0a1.14,1.14,0,0,1-1.57.18l-48.92-44a.38.38,0,0,1-.08-.52h0a.38.38,0,0,1,.56-.1Z" style="fill:#fff"></path></g><path d="M374.06,205.34l2,18.66a1.48,1.48,0,0,0,1.45,1.28l28.94-.11a1.14,1.14,0,0,0,1.16-1.29l-2-18.66a1.48,1.48,0,0,0-1.45-1.28l-28.94.11A1.14,1.14,0,0,0,374.06,205.34Z" style="fill:#263238"></path><path d="M405.53,204.3l.09.87a1.47,1.47,0,0,0-1.44-1.28l-28.94.11a1.15,1.15,0,0,0-1.16,1.3l-.1-.88a1.15,1.15,0,0,1,1.16-1.3l28.94-.11A1.48,1.48,0,0,1,405.53,204.3Z" style="fill:#263238"></path><path d="M405.53,204.3l.09.87a1.47,1.47,0,0,0-1.44-1.28l-28.94.11a1.15,1.15,0,0,0-1.16,1.3l-.1-.88a1.15,1.15,0,0,1,1.16-1.3l28.94-.11A1.48,1.48,0,0,1,405.53,204.3Z" style="fill:#fff;opacity:0.7000000000000001"></path><circle cx="390" cy="215.01" r="1.92" style="fill:#fff"></circle><path d="M424.69,193.08a13.71,13.71,0,0,1,.33,2.78l.61,26.83c.06,2.58-1.42,5.27-6.13,5.22L399,223.76l-8-.16a2.38,2.38,0,0,1-2.25-2.83l.79-4.12a2.39,2.39,0,0,1,2.25-1.93l2.12-.09a2.4,2.4,0,0,1,1.91.84L400.3,219l17.3-.42c.9.2-6.57-33.81-2.06-34.82C417.13,183.43,422.8,184.62,424.69,193.08Z" style="fill:#eec1bb"></path><path d="M397.08,159c-.05.67-.45,1.22-.88,1.22s-.74-.56-.69-1.24.45-1.23.88-1.22S397.13,158.34,397.08,159Z" style="fill:#263238"></path><path d="M390.12,158.81c-.05.68-.44,1.23-.87,1.22s-.74-.56-.69-1.23.44-1.22.88-1.22S390.18,158.13,390.12,158.81Z" style="fill:#263238"></path><path d="M389.62,157.62l-1.55-.49S388.79,158.42,389.62,157.62Z" style="fill:#263238"></path><path d="M399.52,155.85a.35.35,0,0,1-.25-.16,2.91,2.91,0,0,0-2.39-1.38.36.36,0,0,1-.38-.33v0a.43.43,0,0,1,.41-.41,3.6,3.6,0,0,1,3,1.72.4.4,0,0,1-.14.54A.38.38,0,0,1,399.52,155.85Z" style="fill:#263238"></path><path d="M387.86,155.35a.36.36,0,0,1-.42-.3.38.38,0,0,1,.1-.32A4.17,4.17,0,0,1,390.8,153a.38.38,0,0,1,.35.39v0a.42.42,0,0,1-.43.38,3.32,3.32,0,0,0-2.57,1.38A.45.45,0,0,1,387.86,155.35Z" style="fill:#263238"></path><path d="M396.58,157.82l-1.55-.49S395.75,158.61,396.58,157.82Z" style="fill:#263238"></path><polygon points="410.29 225.26 401.51 222.75 401.51 222.74 410.29 225.26" style="fill:#eec1bb"></polygon><path d="M414.22,192.61,416,225.26s1.14-12.22,3.52-25.94C419.5,199.32,420.47,188,414.22,192.61Z" style="opacity:0.1"></path><path d="M400.3,219l17.3-.42c.9.2-6.57-33.81-2.06-34.82,1.59-.35,7.26.84,9.15,9.3a13.71,13.71,0,0,1,.33,2.78l.61,26.83c.06,2.58-1.42,5.27-6.13,5.22L399,223.76Z" style="fill:#34B962"></path><g style="opacity:0.8"><path d="M400.3,219l17.3-.42c.9.2-6.57-33.81-2.06-34.82,1.59-.35,7.26.84,9.15,9.3a13.71,13.71,0,0,1,.33,2.78l.61,26.83c.06,2.58-1.42,5.27-6.13,5.22L399,223.76Z" style="fill:#fff"></path></g></g><g id="freepik--Desk--inject-53"><g id="freepik--monitor-screen--inject-53"><g id="freepik--PC--inject-53"><polygon points="252.19 303.56 292.51 303.73 290.39 278.16 250.07 277.98 252.19 303.56" style="fill:#34B962"></polygon><path d="M252.73,305.56l39.74.18a1.85,1.85,0,0,0,1.87-2l-2.11-25.41a2.26,2.26,0,0,0-2.21-2.05l-39.73-.18a1.84,1.84,0,0,0-1.87,2l2.1,25.41A2.29,2.29,0,0,0,252.73,305.56Z" style="fill:#34B962"></path><g style="opacity:0.7000000000000001"><polygon points="252.19 303.56 292.51 303.73 290.39 278.16 250.07 277.98 252.19 303.56" style="fill:#34B962"></polygon><path d="M254,303.56l36.34.16a2,2,0,0,0,2-2.14L290.54,280a2,2,0,0,0-2-1.82L252.23,278a2,2,0,0,0-2,2.15l1.79,21.6A2,2,0,0,0,254,303.56Z" style="fill:#fff;opacity:0.9"></path></g><polygon points="258.9 276.06 266.65 305.55 264 305.54 256.34 276.05 258.9 276.06" style="fill:#fff;opacity:0.1;isolation:isolate"></polygon><polygon points="254.81 276.04 262.56 305.53 257.3 305.51 249.65 276.02 254.81 276.04" style="fill:#fff;opacity:0.1;isolation:isolate"></polygon></g></g><path d="M265.34,305.41l-13.41.12c-.17,1.56.51,2.12,1.37,2.11l49.08-.07a2,2,0,0,0,2-2h0Z" style="fill:#34B962"></path><path d="M251.93,305.53c-.17,1.56.51,2.12,1.37,2.11l17,0c-1.12,0-2.54-1.09-2.54-2.21Z" style="fill:#fff;opacity:0.2"></path><path d="M265.34,305.41l-13.41.12c-.17,1.56.51,2.12,1.37,2.11l49.08-.07a2,2,0,0,0,2-2h0Z" style="fill:#fff;opacity:0.2"></path><rect x="182.74" y="306.19" width="4.46" height="1.77" transform="translate(369.93 614.15) rotate(180)" style="fill:#263238"></rect><path d="M183,307.06l33.69-.36c4.14,0,5.5-7.83,5.5-10.85h0a9.31,9.31,0,0,0-9.29-9.28H180.57a5.51,5.51,0,0,0-5.5,5.49S175.74,307.06,183,307.06Z" style="fill:#34B962"></path><g style="opacity:0.5"><g style="opacity:0.7000000000000001"><path d="M183,307.06l33.69-.36c4.14,0,5.5-7.83,5.5-10.85h0a9.31,9.31,0,0,0-9.29-9.28H180.57a5.51,5.51,0,0,0-5.5,5.49S175.74,307.06,183,307.06Z" style="fill:#fff"></path></g></g><path d="M179.64,286.66l32.79-.07a21.21,21.21,0,0,1,12.77,4.23l4,3a1.17,1.17,0,0,1-.73,2.1l-32.84-.81Z" style="fill:#34B962"></path><path d="M179.64,286.66l32.07-.07c5.25,0,9.62,1.06,14.07,4.66l4.41,3.3a.76.76,0,0,1-.46,1.37l-33.58-.6Z" style="fill:#fff;opacity:0.5"></path><rect x="223.88" y="306.19" width="4.46" height="1.77" transform="translate(452.22 614.15) rotate(180)" style="fill:#263238"></rect><rect x="194.25" y="306.19" width="4.46" height="1.77" transform="translate(392.95 614.15) rotate(180)" style="fill:#263238"></rect><rect x="211.46" y="306.19" width="4.46" height="1.77" transform="translate(427.37 614.15) rotate(180)" style="fill:#263238"></rect><path d="M196.44,307.06h30a6.87,6.87,0,0,0,6.85-6.85h0a6.87,6.87,0,0,0-6.85-6.85h-30a6.87,6.87,0,0,0-6.85,6.85h0A6.87,6.87,0,0,0,196.44,307.06Z" style="fill:#34B962"></path><g style="clip-path:url(#freepik--clip-path--inject-53)"><rect x="196.35" y="297.62" width="29.18" height="1.15" style="fill:#263238"></rect><rect x="196.35" y="299.41" width="29.18" height="1.15" style="fill:#263238"></rect><rect x="196.35" y="301.21" width="29.18" height="1.15" style="fill:#263238"></rect><rect x="196.35" y="303" width="29.18" height="1.15" style="fill:#263238"></rect></g><path d="M187.55,286.47l.19.19,5.4,2.43c5.23,2.42,8.08,2.18,7.2,0,0,0-.94-8.69-6.71-8.69A6.08,6.08,0,0,0,187.55,286.47Z" style="fill:#34B962"></path><g style="opacity:0.7000000000000001"><path d="M187.55,286.47l.19.19,5.4,2.43c5.23,2.42,8.08,2.18,7.2,0,0,0-.94-8.69-6.71-8.69A6.08,6.08,0,0,0,187.55,286.47Z" style="fill:#fff"></path></g><g id="freepik--Group--inject-53"><polygon points="302.94 310.67 302.94 413.96 300.26 413.96 296.88 310.67 302.94 310.67" style="fill:#263238"></polygon><polygon points="271.25 314.05 271.25 413.94 268.57 413.94 265.19 314.05 271.25 314.05" style="fill:#263238"></polygon><polygon points="271.25 314.05 271.25 413.94 268.57 413.94 265.19 314.05 271.25 314.05" style="opacity:0.5"></polygon><polygon points="141.95 310.67 141.95 412.54 144.63 412.54 148.01 310.67 141.95 310.67" style="fill:#263238"></polygon><polygon points="141.95 310.67 141.95 412.54 144.63 412.54 148.01 310.67 141.95 310.67" style="opacity:0.5"></polygon><polygon points="173.64 314.05 173.64 413.33 176.32 413.33 179.7 314.05 173.64 314.05" style="fill:#263238"></polygon><rect x="123.4" y="307.56" width="200.04" height="4.33" style="fill:#263238"></rect><polygon points="136.56 316.53 309.28 316.53 316.28 311.89 129.55 311.89 136.56 316.53" style="fill:#263238"></polygon><polygon points="136.56 316.53 309.28 316.53 316.28 311.89 129.55 311.89 136.56 316.53" style="opacity:0.5"></polygon></g></g></svg>